<svg width="260" height="176" viewBox="0 0 260 176" fill="none" xmlns="http://www.w3.org/2000/svg">
<mask id="path-1-inside-1_687_3954" fill="white">
<path d="M125.186 0.0285835C125.186 0.0525221 125.213 0.0658559 125.232 0.050942L125.261 0.0278941C125.28 0.012329 125.309 0.0150265 125.325 0.0339971L136.589 13.1781C140.007 17.1665 144.998 19.4619 150.25 19.4619H231C247.016 19.4619 260 32.4457 260 48.4619V147C260 163.016 247.016 176 231 176H29C12.9837 176 0 163.016 0 147V29C0 12.9837 12.9837 0 29 0H125.157C125.173 0 125.186 0.0127973 125.186 0.0285835V0.0285835Z"/>
</mask>
<path d="M125.186 0.0285835C125.186 0.0525221 125.213 0.0658559 125.232 0.050942L125.261 0.0278941C125.28 0.012329 125.309 0.0150265 125.325 0.0339971L136.589 13.1781C140.007 17.1665 144.998 19.4619 150.25 19.4619H231C247.016 19.4619 260 32.4457 260 48.4619V147C260 163.016 247.016 176 231 176H29C12.9837 176 0 163.016 0 147V29C0 12.9837 12.9837 0 29 0H125.157C125.173 0 125.186 0.0127973 125.186 0.0285835V0.0285835Z" fill="#D29A9A"/>
<path d="M136.589 13.1781L135.83 13.8289L136.589 13.1781ZM125.261 0.0278941L124.638 -0.754324L125.261 0.0278941ZM125.325 0.0339971L124.566 0.684723L125.325 0.0339971ZM125.232 0.050942L124.609 -0.731276L125.232 0.050942ZM125.232 0.050942L125.855 0.83316L125.884 0.810112L125.261 0.0278941L124.638 -0.754324L124.609 -0.731276L125.232 0.050942ZM125.325 0.0339971L124.566 0.684723L135.83 13.8289L136.589 13.1781L137.349 12.5274L126.084 -0.616728L125.325 0.0339971ZM150.25 19.4619V20.4619H231V19.4619V18.4619H150.25V19.4619ZM260 48.4619H259V147H260H261V48.4619H260ZM231 176V175H29V176V177H231V176ZM0 147H1V29H0H-1V147H0ZM29 0V1H125.157V0V-1H29V0ZM125.157 0V1C124.62 1 124.186 0.564837 124.186 0.0285835H125.186H126.186C126.186 -0.539242 125.725 -1 125.157 -1V0ZM0 29H1C1 13.536 13.536 1 29 1V0V-1C12.4315 -1 -1 12.4315 -1 29H0ZM29 176V175C13.536 175 1 162.464 1 147H0H-1C-1 163.569 12.4315 177 29 177V176ZM260 147H259C259 162.464 246.464 175 231 175V176V177C247.569 177 261 163.569 261 147H260ZM231 19.4619V20.4619C246.464 20.4619 259 32.9979 259 48.4619H260H261C261 31.8934 247.569 18.4619 231 18.4619V19.4619ZM136.589 13.1781L135.83 13.8289C139.438 18.0389 144.706 20.4619 150.25 20.4619V19.4619V18.4619C145.29 18.4619 140.577 16.2941 137.349 12.5274L136.589 13.1781ZM125.261 0.0278941L125.884 0.810112C125.482 1.12991 124.9 1.07448 124.566 0.684723L125.325 0.0339971L126.084 -0.616728C125.718 -1.04443 125.078 -1.10525 124.638 -0.754324L125.261 0.0278941ZM125.232 0.050942L124.609 -0.731276C125.245 -1.23813 126.186 -0.784978 126.186 0.0285835H125.186H124.186C124.186 0.890023 125.181 1.36984 125.855 0.83316L125.232 0.050942Z" fill="#DFDFDF" mask="url(#path-1-inside-1_687_3954)"/>
</svg>
