<svg width="16" height="16" viewBox="0 0 16 16" fill="none" xmlns="http://www.w3.org/2000/svg">
<path fill-rule="evenodd" clip-rule="evenodd" d="M5.93366 1.3335H10.047C11.8537 1.3335 13.3137 2.04683 13.3337 3.86016V13.9802C13.3337 14.0935 13.307 14.2068 13.2537 14.3068C13.167 14.4668 13.0203 14.5868 12.8403 14.6402C12.667 14.6935 12.4737 14.6668 12.3137 14.5735L7.99366 12.4135L3.66699 14.5735C3.56766 14.6262 3.45366 14.6602 3.34033 14.6602C2.96699 14.6602 2.66699 14.3535 2.66699 13.9802V3.86016C2.66699 2.04683 4.13366 1.3335 5.93366 1.3335ZM5.48033 6.4135H10.5003C10.787 6.4135 11.0203 6.1795 11.0203 5.88683C11.0203 5.5935 10.787 5.36016 10.5003 5.36016H5.48033C5.19366 5.36016 4.96033 5.5935 4.96033 5.88683C4.96033 6.1795 5.19366 6.4135 5.48033 6.4135Z" fill="#EF7C80"/>
</svg>
