<svg width="16" height="16" viewBox="0 0 16 16" fill="none" xmlns="http://www.w3.org/2000/svg">
<path d="M4.5 7.99976C4.5 8.82838 3.82876 9.5 3 9.5C2.17173 9.5 1.5 8.82838 1.5 7.99976C1.5 7.17162 2.17173 6.5 3 6.5C3.82876 6.5 4.5 7.17162 4.5 7.99976Z" fill="#B6B6B6"/>
<path d="M9.5 8.00024C9.5 8.82838 8.82876 9.5 8 9.5C7.17173 9.5 6.5 8.82838 6.5 8.00024C6.5 7.17162 7.17173 6.5 8 6.5C8.82876 6.5 9.5 7.17162 9.5 8.00024Z" fill="#B6B6B6"/>
<path d="M14.5 8.00024C14.5 8.82838 13.8288 9.5 13 9.5C12.1717 9.5 11.5 8.82838 11.5 8.00024C11.5 7.17162 12.1717 6.5 13 6.5C13.8288 6.5 14.5 7.17162 14.5 8.00024Z" fill="#B6B6B6"/>
</svg>
