<svg width="32" height="32" viewBox="0 0 32 32" fill="none" xmlns="http://www.w3.org/2000/svg">
<path d="M16.5333 3.20001C9.16949 3.20001 3.2 7.90681 3.2 13.7128C3.2 17.4665 5.69564 20.7603 9.44974 22.6201C9.24551 23.3245 8.13731 27.1514 8.09321 27.4521C8.09321 27.4521 8.06667 27.678 8.21295 27.7641C8.35923 27.8503 8.53128 27.7833 8.53128 27.7833C8.95077 27.7248 13.3958 24.6024 14.1651 24.0603C14.9337 24.1691 15.7251 24.2257 16.5333 24.2257C23.8972 24.2257 29.8667 19.519 29.8667 13.7128C29.8667 7.90681 23.8972 3.20001 16.5333 3.20001Z" fill="black"/>
<path d="M9.16154 17.3826C8.73731 17.3826 8.39231 17.0532 8.39231 16.648V12.0782H7.19206C6.77577 12.0782 6.43718 11.7402 6.43718 11.325C6.43718 10.9097 6.7759 10.5717 7.19206 10.5717H11.131C11.5473 10.5717 11.8859 10.9097 11.8859 11.325C11.8859 11.7402 11.5472 12.0782 11.131 12.0782H9.93077V16.648C9.93077 17.0532 9.58577 17.3826 9.16154 17.3826ZM15.9067 17.3726C15.5859 17.3726 15.3405 17.2424 15.2665 17.0329L14.8856 16.0357L12.54 16.0356L12.1589 17.0334C12.0851 17.2425 11.8399 17.3726 11.5191 17.3726C11.3504 17.3728 11.1836 17.3366 11.0301 17.2665C10.8181 17.1687 10.6142 16.8997 10.8478 16.1742L12.6878 11.3311C12.8174 10.9628 13.2112 10.5833 13.7122 10.5719C14.2146 10.5832 14.6083 10.9628 14.7382 11.3319L16.5774 16.1728C16.8115 16.9 16.6077 17.1691 16.3956 17.2666C16.2421 17.3366 16.0754 17.3728 15.9067 17.3726C15.9067 17.3726 15.9065 17.3726 15.9067 17.3726ZM14.4812 14.6732L13.7128 12.4905L12.9445 14.6732H14.4812ZM17.8154 17.2705C17.4089 17.2705 17.0782 16.9541 17.0782 16.5653V11.341C17.0782 10.9167 17.4305 10.5717 17.8635 10.5717C18.2964 10.5717 18.6487 10.9167 18.6487 11.341V15.8602H20.2833C20.6899 15.8602 21.0205 16.1766 21.0205 16.5653C21.0205 16.9541 20.6899 17.2705 20.2833 17.2705H17.8154ZM22.089 17.3726C21.6647 17.3726 21.3197 17.0276 21.3197 16.6034V11.341C21.3197 10.9167 21.6647 10.5717 22.089 10.5717C22.5132 10.5717 22.8582 10.9167 22.8582 11.341V12.9943L25.0044 10.8482C25.1147 10.7378 25.2664 10.677 25.431 10.677C25.6231 10.677 25.8159 10.7598 25.9604 10.9042C26.0951 11.0388 26.1755 11.212 26.1865 11.3919C26.1977 11.5733 26.1373 11.7396 26.0168 11.8602L24.2639 13.6129L26.1573 16.1214C26.2184 16.2018 26.263 16.2937 26.2883 16.3915C26.3137 16.4893 26.3194 16.5912 26.305 16.6912C26.2913 16.7913 26.2579 16.8877 26.2066 16.9748C26.1554 17.0619 26.0874 17.1379 26.0065 17.1985C25.8735 17.2997 25.7109 17.3542 25.5438 17.3538C25.4247 17.3544 25.307 17.327 25.2003 17.2739C25.0936 17.2208 25.0008 17.1434 24.9294 17.048L23.1254 14.6578L22.8585 14.9247V16.603C22.8582 16.807 22.7771 17.0026 22.6328 17.1469C22.4886 17.2912 22.293 17.3724 22.089 17.3726Z" fill="#FFE812"/>
</svg>
